<svg xmlns="http://www.w3.org/2000/svg" viewBox="0 0 640 512" width="32" height="32">
    <path fill="#fde06c" d="M352 111.1c0 8.799-7.199 16-16 16s-16-7.201-16-16V96c0-8.801 7.199-16 16-16s16 7.199 16 16V111.1zM160 111.1c0 8.799-7.199 16-16 16s-16-7.201-16-16V96c0-8.801 7.199-16 16-16s16 7.199 16 16V111.1zM469.8 160C495.7 160 517 181.8 517 208.2c0 21.37-11.5 41.87-32 52.5V256c0 17.67-14.33 32-32 32h-128c-17.67 0-32-14.33-32-32v-12.5c-23.25-10.5-37.5-33.5-37.5-60.5C255.5 140.1 284.5 112 320 112h32c35.5 0 64.5 28.88 64.5 64c0 6.375-2 13-5.375 18.88C425.1 207.5 434.9 216 448 216c12.38 0 22.5-10.12 22.5-22.5S460.4 171 448 171c-6.25 0-12 3.125-15.5 8.25C425.1 166.5 416.4 160 405.8 160H384c-8.75 0-16 7.25-16 16S375.3 192 384 192h85.75zM640 464C640 490.5 618.5 512 592 512H384c-9.875 0-18.25-6-22-14.62S356.4 481.4 362.4 473.9l47.25-71C415.6 396 421.8 392 428.1 392h25.75c-4.5-7.25-7.125-15.62-7.125-24.5c0-26.5 21.5-48 48-48s48 21.5 48 48c0 9-2.625 17.38-7.125 24.5H544c17.67 0 32-14.33 32-32s-14.33-32-32-32h-76.88c16.75-19 41-32 68.88-32c35.25 0 64 21.5 64 48s-28.75 48-64 48c-13.25 0-25.75-4.25-36.5-11.5L448 423.1l-19.5-29.25C417.8 412.5 405.3 416 392 416c-35.25 0-64-21.5-64-48s28.75-48 64-48c27.88 0 52.12 13 68.88 32H384c-35.25 0-64 28.75-64 64v32c0 17.67 14.33 32 32 32h208c8.875 0 16-7.125 16-16s-7.125-16-16-16h-96.88l42.5-63.75C582.1 416.5 592 401.9 592 384c0-9-2.625-17.38-7.125-24.5H592c26.5 0 48 21.5 48 48V464z"/>
</svg>